<svg width="445" height="445" viewBox="0 0 445 445" fill="none" xmlns="http://www.w3.org/2000/svg">
	<g clip-path="url(#clip0)">
	<path d="M352.025 196.712L165.884 10.848C159.029 3.615 150.469 0 140.187 0C129.905 0 121.345 3.619 114.49 10.848L92.792 32.264C85.748 39.307 82.226 47.868 82.226 57.956C82.226 67.853 85.747 76.516 92.792 83.937L231.545 222.41L92.786 361.168C85.744 368.211 82.222 376.772 82.222 386.861C82.222 396.757 85.743 405.423 92.786 412.841L114.486 434.254C121.529 441.297 130.098 444.818 140.183 444.818C150.272 444.818 158.839 441.297 165.88 434.254L352.025 248.39C359.071 240.967 362.596 232.306 362.596 222.409C362.597 212.321 359.071 203.755 352.025 196.712Z" fill="white"/>
	</g>
	<defs>
	<clipPath id="clip0">
	<rect width="444.819" height="444.819" fill="white"/>
	</clipPath>
	</defs>
	</svg>
	