<svg id="Capa_1" enable-background="new 0 0 512 512" height="512" viewBox="0 0 512 512" width="512" xmlns="http://www.w3.org/2000/svg" xmlns:xlink="http://www.w3.org/1999/xlink"><linearGradient id="SVGID_1_" gradientUnits="userSpaceOnUse" x1="256" x2="256" y1="482" y2="0"><stop offset="0" stop-color="#c1fde6"/><stop offset=".9973" stop-color="#edfff2"/></linearGradient><linearGradient id="SVGID_2_" gradientUnits="userSpaceOnUse" x1="256" x2="256" y1="512" y2="120"><stop offset="0" stop-color="#00b39a"/><stop offset="1" stop-color="#9afdaa"/></linearGradient><g><g><g><path d="m121 482h270v-181h-135-135zm135-482c-90.967 0-165 74.019-165 165 0 11.821 1.113 22.983 3.34 33.179 1.494 6.899 7.588 11.821 14.648 11.821h30.908c7.793 0 13.154 6.563 14.941 12.979 12.481 45.351 54.083 78.021 101.163 78.021s88.682-32.67 101.133-77.934c1.816-6.504 7.178-13.066 14.971-13.066h30.908c7.061 0 13.154-4.922 14.648-11.821 2.227-10.196 3.34-21.358 3.34-33.179 0-90.981-74.033-165-165-165z" fill="url(#SVGID_1_)"/></g></g><g><g><path d="m436 180h-63.9c-20.402 0-37.8 14.099-43.802 35.099-8.998 32.401-38.698 54.901-72.298 54.901s-63.3-22.5-72.297-55.201c-6.003-20.7-23.401-34.799-43.803-34.799h-63.9c-8.401 0-15 6.599-15 15v272c0 24.899 20.098 45 45 45h300c24.902 0 45-20.101 45-45v-272c0-8.401-6.599-15-15-15zm-231.599 228.399c6.899 4.801 8.701 14.101 4.197 21-4.797 6.901-14.099 8.701-20.999 4.2l-45-30c-4.197-2.999-6.599-7.5-6.599-12.599 0-5.101 2.402-9.6 6.599-12.601l45-30c6.899-4.499 16.201-2.699 20.999 4.2 4.504 6.901 2.703 16.201-4.197 21l-26.4 17.401zm81.299-73.799-30 120c-2.102 8.101-10.199 12.9-18.3 10.8-8.101-1.8-12.902-9.901-11.1-17.999l30-120c2.102-8.101 10.199-12.9 18.3-10.801 8.1 1.799 12.901 9.899 11.1 18zm83.701 68.999-45 30c-6.899 4.501-16.201 2.701-20.999-4.2-4.504-6.899-2.703-16.199 4.197-21l26.4-17.399-26.4-17.401c-6.899-4.799-8.701-14.099-4.197-21 4.797-6.899 14.099-8.699 20.999-4.2l45 30c3.896 2.7 6.299 6.601 6.299 12.601 0 5.7-2.699 10.199-6.299 12.599zm-113.401-193.599c24.814 0 45-20.186 45-45s-20.186-45-45-45-45 20.186-45 45 20.186 45 45 45z" fill="url(#SVGID_2_)"/></g></g></g></svg>