<svg width="512" height="512" viewBox="0 0 512 512" fill="none" xmlns="http://www.w3.org/2000/svg">
  <path d="M121 482H391V301H256H121V482ZM256 0C165.033 0 91 74.019 91 165C91 176.821 92.113 187.983 94.34 198.179C95.834 205.078 101.928 210 108.988 210H139.896C147.689 210 153.05 216.563 154.837 222.979C167.318 268.33 208.92 301 256 301C303.08 301 344.682 268.33 357.133 223.066C358.949 216.562 364.311 210 372.104 210H403.012C410.073 210 416.166 205.078 417.66 198.179C419.887 187.983 421 176.821 421 165C421 74.019 346.967 0 256 0Z" fill="url(#paint0_linear)"/>
  <path d="M436 180H372.1C351.698 180 334.3 194.099 328.298 215.099C319.3 247.5 289.6 270 256 270C222.4 270 192.7 247.5 183.703 214.799C177.7 194.099 160.302 180 139.9 180H76C67.599 180 61 186.599 61 195V467C61 491.899 81.098 512 106 512H406C430.902 512 451 491.899 451 467V195C451 186.599 444.401 180 436 180ZM204.401 408.399C211.3 413.2 213.102 422.5 208.598 429.399C203.801 436.3 194.499 438.1 187.599 433.599L142.599 403.599C138.402 400.6 136 396.099 136 391C136 385.899 138.402 381.4 142.599 378.399L187.599 348.399C194.498 343.9 203.8 345.7 208.598 352.599C213.102 359.5 211.301 368.8 204.401 373.599L178.001 391L204.401 408.399ZM285.7 334.6L255.7 454.6C253.598 462.701 245.501 467.5 237.4 465.4C229.299 463.6 224.498 455.499 226.3 447.401L256.3 327.401C258.402 319.3 266.499 314.501 274.6 316.6C282.7 318.399 287.501 326.499 285.7 334.6V334.6ZM369.401 403.599L324.401 433.599C317.502 438.1 308.2 436.3 303.402 429.399C298.898 422.5 300.699 413.2 307.599 408.399L333.999 391L307.599 373.599C300.7 368.8 298.898 359.5 303.402 352.599C308.199 345.7 317.501 343.9 324.401 348.399L369.401 378.399C373.297 381.099 375.7 385 375.7 391C375.7 396.7 373.001 401.199 369.401 403.599ZM256 210C280.814 210 301 189.814 301 165C301 140.186 280.814 120 256 120C231.186 120 211 140.186 211 165C211 189.814 231.186 210 256 210Z" fill="url(#paint1_linear)"/>
  <defs>
  <linearGradient id="paint0_linear" x1="256" y1="482" x2="256" y2="0" gradientUnits="userSpaceOnUse">
  <stop stop-color="#EDAE0E"/>
  <stop offset="0.9973" stop-color="#FBFAF2"/>
  </linearGradient>
  <linearGradient id="paint1_linear" x1="256" y1="512" x2="256" y2="120" gradientUnits="userSpaceOnUse">
  <stop/>
  <stop offset="1"/>
  </linearGradient>
  </defs>
  </svg>
  