<svg width="402" height="512" viewBox="0 0 402 512" fill="none" xmlns="http://www.w3.org/2000/svg">
	<path d="M269.907 344.893L68.913 326.334L64.916 369.162L266.197 387.717L269.907 344.893Z" fill="#EDAE0E"/>
	<path d="M265.055 399.996L63.202 400.283V443.389L265.055 443.111V399.996Z" fill="#EDAE0E"/>
	<path d="M308.734 239.255L134.865 136.471L112.883 173.586L286.751 276.37L308.734 239.255Z" fill="#EDAE0E"/>
	<path d="M283.329 288.361L88.327 236.112L77.191 277.798L272.193 330.047L283.329 288.361Z" fill="#EDAE0E"/>
	<path d="M299.594 477.651H34.649V301.212H0.104004V511.34H0.391003L10.386 511.627H333.573V511.34L333.86 501.347V301.212H299.594V477.651Z" fill="#EDAE0E"/>
	<path d="M366.98 0L324.436 7.423L358.989 206.421L401.523 198.999L366.98 0Z" fill="#EDAE0E"/>
	<path d="M201.958 66.522L315.873 233.26L351.282 208.993L237.643 41.971L201.958 66.522Z" fill="#EDAE0E"/>
	</svg>
	